<svg xmlns="http://www.w3.org/2000/svg" viewBox="0 0 120 120" width="120" height="120">
  <rect width="120" height="120" rx="12" fill="#1a1a2e"/>
  <path d="M60,24 Q74,50 68,68 Q64,78 60,80 Q56,78 52,68 Q46,50 60,24 Z" fill="#fdcb6e"/>
  <path d="M60,32 Q68,52 64,66 Q62,74 60,75 Q58,74 56,66 Q52,52 60,32 Z" fill="#ffeaa7"/>
  <path d="M60,40 Q64,54 62,64 Q61,70 60,70 Q59,70 58,64 Q56,54 60,40 Z" fill="#ffffff" fill-opacity="0.5"/>
  <path d="M48,80 L72,80 L76,88 L44,88 Z" fill="#576574"/>
  <rect x="52" y="88" width="16" height="22" rx="2" fill="#636e72"/>
  <rect x="54" y="92" width="12" height="3" fill="#2d3436" fill-opacity="0.5"/>
  <rect x="54" y="100" width="12" height="3" fill="#2d3436" fill-opacity="0.3"/>
</svg>
