<svg xmlns="http://www.w3.org/2000/svg" viewBox="0 0 120 120" width="120" height="120">
  <rect width="120" height="120" rx="12" fill="#1a1a2e"/>
  <rect x="16" y="20" width="88" height="68" rx="2" fill="none" stroke="#6c5ce7" stroke-width="1" stroke-opacity="0.2" stroke-dasharray="4,3"/>
  <path d="M30,20 L30,88" stroke="#6c5ce7" stroke-width="1" stroke-opacity="0.2"/>
  <path d="M50,20 L50,88" stroke="#6c5ce7" stroke-width="1" stroke-opacity="0.15"/>
  <path d="M70,20 L70,88" stroke="#6c5ce7" stroke-width="1" stroke-opacity="0.15"/>
  <path d="M90,20 L90,88" stroke="#6c5ce7" stroke-width="1" stroke-opacity="0.2"/>
  <path d="M16,36 Q40,28 60,36 Q80,44 104,36" fill="none" stroke="#a29bfe" stroke-width="1.5" stroke-opacity="0.5"/>
  <path d="M16,56 Q40,48 60,56 Q80,64 104,56" fill="none" stroke="#a29bfe" stroke-width="1.5" stroke-opacity="0.4"/>
  <path d="M16,76 Q40,68 60,76 Q80,84 104,76" fill="none" stroke="#a29bfe" stroke-width="1" stroke-opacity="0.3"/>
  <ellipse cx="60" cy="100" rx="18" ry="8" fill="#576574"/>
  <rect x="57" y="88" width="6" height="12" rx="1" fill="#636e72"/>
  <ellipse cx="60" cy="88" rx="12" ry="5" fill="#2d3436" stroke="#6c5ce7" stroke-width="0.5"/>
  <line x1="60" y1="88" x2="60" y2="78" stroke="#a4b0c1" stroke-width="2"/>
  <circle cx="60" cy="76" r="3" fill="#a4b0c1"/>
  <circle cx="60" cy="76" r="1.5" fill="#a29bfe"/>
  <path d="M88,88 L88,72" stroke="#e17055" stroke-width="1.5" stroke-opacity="0.4"/>
  <line x1="85" y1="75" x2="91" y2="69" stroke="#e17055" stroke-width="1.5" stroke-opacity="0.4"/>
  <line x1="85" y1="69" x2="91" y2="75" stroke="#e17055" stroke-width="1.5" stroke-opacity="0.4"/>
</svg>
