<svg xmlns="http://www.w3.org/2000/svg" viewBox="0 0 120 120" width="120" height="120">
  <rect width="120" height="120" rx="12" fill="#1a1a2e"/>
  <circle cx="60" cy="32" r="22" fill="none" stroke="#ffeaa7" stroke-width="1" stroke-opacity="0.15"/>
  <line x1="60" y1="32" x2="28" y2="12" stroke="#ffeaa7" stroke-width="2" stroke-opacity="0.3"/>
  <line x1="60" y1="32" x2="92" y2="12" stroke="#ffeaa7" stroke-width="2" stroke-opacity="0.3"/>
  <line x1="60" y1="32" x2="28" y2="52" stroke="#ffeaa7" stroke-width="1.5" stroke-opacity="0.2"/>
  <line x1="60" y1="32" x2="92" y2="52" stroke="#ffeaa7" stroke-width="1.5" stroke-opacity="0.2"/>
  <line x1="60" y1="32" x2="60" y2="8" stroke="#ffffff" stroke-width="2" stroke-opacity="0.35"/>
  <line x1="60" y1="32" x2="60" y2="56" stroke="#ffffff" stroke-width="1.5" stroke-opacity="0.15"/>
  <line x1="60" y1="32" x2="34" y2="32" stroke="#ffffff" stroke-width="1.5" stroke-opacity="0.2"/>
  <line x1="60" y1="32" x2="86" y2="32" stroke="#ffffff" stroke-width="1.5" stroke-opacity="0.2"/>
  <circle cx="60" cy="32" r="6" fill="#ffffff" fill-opacity="0.6"/>
  <circle cx="60" cy="32" r="3" fill="#ffffff"/>
  <rect x="54" y="68" width="12" height="34" rx="3" fill="#2d3436" stroke="#636e72" stroke-width="1"/>
  <rect x="48" y="60" width="24" height="10" rx="3" fill="#576574" stroke="#fdcb6e" stroke-width="0.5"/>
  <rect x="52" y="56" width="16" height="6" rx="2" fill="#636e72"/>
  <rect x="56" y="58" width="8" height="3" fill="#e17055" fill-opacity="0.4"/>
  <circle cx="60" cy="104" r="5" fill="none" stroke="#636e72" stroke-width="2"/>
</svg>
