<svg xmlns="http://www.w3.org/2000/svg" viewBox="0 0 120 120" width="120" height="120">
  <rect width="120" height="120" rx="12" fill="#1a1a2e"/>
  <line x1="60" y1="16" x2="60" y2="90" stroke="#e17055" stroke-width="4" stroke-linecap="round"/>
  <line x1="60" y1="20" x2="60" y2="85" stroke="#fdcb6e" stroke-width="1.5" stroke-linecap="round"/>
  <circle cx="60" cy="14" r="4" fill="#fdcb6e"/>
  <path d="M60,76 L48,90 L60,86 Z" fill="#e17055" fill-opacity="0.6"/>
  <path d="M60,76 L72,90 L60,86 Z" fill="#d63031" fill-opacity="0.4"/>
  <path d="M38,58 Q46,52 54,58 Q62,64 70,58 Q78,52 82,56" fill="none" stroke="#fdcb6e" stroke-width="1" stroke-opacity="0.3"/>
  <path d="M60,28 L54,34 L60,32 Z" fill="#e17055" fill-opacity="0.4"/>
  <path d="M60,40 L56,44 L60,43 Z" fill="#e17055" fill-opacity="0.3"/>
  <path d="M60,52 L57,55 L60,54 Z" fill="#e17055" fill-opacity="0.2"/>
</svg>
